<svg width="136" height="20" viewBox="0 0 136 20" fill="none" xmlns="http://www.w3.org/2000/svg">
<path fill-rule="evenodd" clip-rule="evenodd" d="M3.6 4.8C3.6 5.79411 2.79411 6.6 1.8 6.6C0.805887 6.6 0 5.79411 0 4.8C0 3.80589 0.805887 3 1.8 3C2.79411 3 3.6 3.80589 3.6 4.8ZM7.1 3.8C6.49249 3.8 6 4.29249 6 4.9C6 5.50751 6.49249 6 7.1 6H12.9C13.5075 6 14 5.50751 14 4.9C14 4.29249 13.5075 3.8 12.9 3.8H7.1ZM7.1 13.8C6.49249 13.8 6 14.2925 6 14.9C6 15.5075 6.49249 16 7.1 16H12.9C13.5075 16 14 15.5075 14 14.9C14 14.2925 13.5075 13.8 12.9 13.8H7.1ZM0 9.9C0 9.29249 0.492487 8.8 1.1 8.8H6.9C7.50751 8.8 8 9.29249 8 9.9C8 10.5075 7.50751 11 6.9 11H1.1C0.492487 11 0 10.5075 0 9.9ZM1.8 16.6C2.79411 16.6 3.6 15.7941 3.6 14.8C3.6 13.8059 2.79411 13 1.8 13C0.805887 13 0 13.8059 0 14.8C0 15.7941 0.805887 16.6 1.8 16.6ZM13.6 9.8C13.6 10.7941 12.7941 11.6 11.8 11.6C10.8059 11.6 10 10.7941 10 9.8C10 8.80589 10.8059 8 11.8 8C12.7941 8 13.6 8.80589 13.6 9.8Z" fill="#8E8E94"/>
<path d="M25.584 5.6C26.312 5.6 26.944 5.72 27.48 5.96C28.024 6.2 28.44 6.544 28.728 6.992C29.016 7.44 29.16 7.972 29.16 8.588C29.16 9.196 29.016 9.728 28.728 10.184C28.44 10.632 28.024 10.976 27.48 11.216C26.944 11.456 26.312 11.576 25.584 11.576H23.688V14H22.128V5.6H25.584ZM25.512 10.256C26.192 10.256 26.708 10.112 27.06 9.824C27.412 9.536 27.588 9.124 27.588 8.588C27.588 8.052 27.412 7.64 27.06 7.352C26.708 7.064 26.192 6.92 25.512 6.92H23.688V10.256H25.512ZM33.4304 14.084C32.7824 14.084 32.1984 13.944 31.6784 13.664C31.1584 13.384 30.7504 12.996 30.4544 12.5C30.1664 11.996 30.0224 11.428 30.0224 10.796C30.0224 10.164 30.1664 9.6 30.4544 9.104C30.7504 8.608 31.1584 8.22 31.6784 7.94C32.1984 7.66 32.7824 7.52 33.4304 7.52C34.0864 7.52 34.6744 7.66 35.1944 7.94C35.7144 8.22 36.1184 8.608 36.4064 9.104C36.7024 9.6 36.8504 10.164 36.8504 10.796C36.8504 11.428 36.7024 11.996 36.4064 12.5C36.1184 12.996 35.7144 13.384 35.1944 13.664C34.6744 13.944 34.0864 14.084 33.4304 14.084ZM33.4304 12.8C33.9824 12.8 34.4384 12.616 34.7984 12.248C35.1584 11.88 35.3384 11.396 35.3384 10.796C35.3384 10.196 35.1584 9.712 34.7984 9.344C34.4384 8.976 33.9824 8.792 33.4304 8.792C32.8784 8.792 32.4224 8.976 32.0624 9.344C31.7104 9.712 31.5344 10.196 31.5344 10.796C31.5344 11.396 31.7104 11.88 32.0624 12.248C32.4224 12.616 32.8784 12.8 33.4304 12.8ZM48.105 7.592L45.741 14H44.301L42.645 9.584L40.965 14H39.525L37.173 7.592H38.589L40.281 12.32L42.045 7.592H43.305L45.033 12.344L46.773 7.592H48.105ZM54.9846 10.832C54.9846 10.936 54.9766 11.084 54.9606 11.276H49.9326C50.0206 11.748 50.2486 12.124 50.6166 12.404C50.9926 12.676 51.4566 12.812 52.0086 12.812C52.7126 12.812 53.2926 12.58 53.7486 12.116L54.5526 13.04C54.2646 13.384 53.9006 13.644 53.4606 13.82C53.0206 13.996 52.5246 14.084 51.9726 14.084C51.2686 14.084 50.6486 13.944 50.1126 13.664C49.5766 13.384 49.1606 12.996 48.8646 12.5C48.5766 11.996 48.4326 11.428 48.4326 10.796C48.4326 10.172 48.5726 9.612 48.8526 9.116C49.1406 8.612 49.5366 8.22 50.0406 7.94C50.5446 7.66 51.1126 7.52 51.7446 7.52C52.3686 7.52 52.9246 7.66 53.4126 7.94C53.9086 8.212 54.2926 8.6 54.5646 9.104C54.8446 9.6 54.9846 10.176 54.9846 10.832ZM51.7446 8.72C51.2646 8.72 50.8566 8.864 50.5206 9.152C50.1926 9.432 49.9926 9.808 49.9206 10.28H53.5566C53.4926 9.816 53.2966 9.44 52.9686 9.152C52.6406 8.864 52.2326 8.72 51.7446 8.72ZM57.8534 8.528C58.2854 7.856 59.0454 7.52 60.1334 7.52V8.948C60.0054 8.924 59.8894 8.912 59.7854 8.912C59.2014 8.912 58.7454 9.084 58.4174 9.428C58.0894 9.764 57.9254 10.252 57.9254 10.892V14H56.4254V7.592H57.8534V8.528ZM67.3713 10.832C67.3713 10.936 67.3633 11.084 67.3473 11.276H62.3193C62.4073 11.748 62.6353 12.124 63.0033 12.404C63.3793 12.676 63.8433 12.812 64.3953 12.812C65.0993 12.812 65.6793 12.58 66.1353 12.116L66.9393 13.04C66.6513 13.384 66.2873 13.644 65.8473 13.82C65.4073 13.996 64.9113 14.084 64.3593 14.084C63.6553 14.084 63.0353 13.944 62.4993 13.664C61.9633 13.384 61.5473 12.996 61.2513 12.5C60.9633 11.996 60.8193 11.428 60.8193 10.796C60.8193 10.172 60.9593 9.612 61.2393 9.116C61.5273 8.612 61.9233 8.22 62.4273 7.94C62.9313 7.66 63.4993 7.52 64.1313 7.52C64.7553 7.52 65.3113 7.66 65.7993 7.94C66.2953 8.212 66.6793 8.6 66.9513 9.104C67.2313 9.6 67.3713 10.176 67.3713 10.832ZM64.1313 8.72C63.6513 8.72 63.2433 8.864 62.9073 9.152C62.5793 9.432 62.3793 9.808 62.3073 10.28H65.9433C65.8793 9.816 65.6833 9.44 65.3553 9.152C65.0273 8.864 64.6193 8.72 64.1313 8.72ZM75.0881 5.096V14H73.6481V13.172C73.4001 13.476 73.0921 13.704 72.7241 13.856C72.3641 14.008 71.9641 14.084 71.5241 14.084C70.9081 14.084 70.3521 13.948 69.8561 13.676C69.3681 13.404 68.9841 13.02 68.7041 12.524C68.4241 12.02 68.2841 11.444 68.2841 10.796C68.2841 10.148 68.4241 9.576 68.7041 9.08C68.9841 8.584 69.3681 8.2 69.8561 7.928C70.3521 7.656 70.9081 7.52 71.5241 7.52C71.9481 7.52 72.3361 7.592 72.6881 7.736C73.0401 7.88 73.3401 8.096 73.5881 8.384V5.096H75.0881ZM71.7041 12.8C72.0641 12.8 72.3881 12.72 72.6761 12.56C72.9641 12.392 73.1921 12.156 73.3601 11.852C73.5281 11.548 73.6121 11.196 73.6121 10.796C73.6121 10.396 73.5281 10.044 73.3601 9.74C73.1921 9.436 72.9641 9.204 72.6761 9.044C72.3881 8.876 72.0641 8.792 71.7041 8.792C71.3441 8.792 71.0201 8.876 70.7321 9.044C70.4441 9.204 70.2161 9.436 70.0481 9.74C69.8801 10.044 69.7961 10.396 69.7961 10.796C69.7961 11.196 69.8801 11.548 70.0481 11.852C70.2161 12.156 70.4441 12.392 70.7321 12.56C71.0201 12.72 71.3441 12.8 71.7041 12.8ZM83.9188 7.52C84.5428 7.52 85.0988 7.656 85.5868 7.928C86.0828 8.2 86.4708 8.584 86.7508 9.08C87.0308 9.576 87.1708 10.148 87.1708 10.796C87.1708 11.444 87.0308 12.02 86.7508 12.524C86.4708 13.02 86.0828 13.404 85.5868 13.676C85.0988 13.948 84.5428 14.084 83.9188 14.084C83.4788 14.084 83.0748 14.008 82.7068 13.856C82.3468 13.704 82.0428 13.476 81.7948 13.172V14H80.3668V5.096H81.8668V8.372C82.1228 8.092 82.4228 7.88 82.7668 7.736C83.1188 7.592 83.5028 7.52 83.9188 7.52ZM83.7508 12.8C84.3028 12.8 84.7548 12.616 85.1068 12.248C85.4668 11.88 85.6468 11.396 85.6468 10.796C85.6468 10.196 85.4668 9.712 85.1068 9.344C84.7548 8.976 84.3028 8.792 83.7508 8.792C83.3908 8.792 83.0668 8.876 82.7788 9.044C82.4908 9.204 82.2628 9.436 82.0948 9.74C81.9268 10.044 81.8428 10.396 81.8428 10.796C81.8428 11.196 81.9268 11.548 82.0948 11.852C82.2628 12.156 82.4908 12.392 82.7788 12.56C83.0668 12.72 83.3908 12.8 83.7508 12.8ZM94.4176 7.592L91.4176 14.516C91.1376 15.212 90.7976 15.7 90.3976 15.98C89.9976 16.268 89.5136 16.412 88.9456 16.412C88.6256 16.412 88.3096 16.36 87.9976 16.256C87.6856 16.152 87.4296 16.008 87.2296 15.824L87.8296 14.72C87.9736 14.856 88.1416 14.964 88.3336 15.044C88.5336 15.124 88.7336 15.164 88.9336 15.164C89.1976 15.164 89.4136 15.096 89.5816 14.96C89.7576 14.824 89.9176 14.596 90.0616 14.276L90.1696 14.024L87.3736 7.592H88.9336L90.9496 12.332L92.9776 7.592H94.4176ZM104.264 12.056H100.064L99.2355 14H97.6275L101.408 5.6H102.944L106.736 14H105.104L104.264 12.056ZM103.747 10.832L102.164 7.16L100.592 10.832H103.747ZM107.66 7.592H109.16V14H107.66V7.592ZM108.416 6.536C108.144 6.536 107.916 6.452 107.732 6.284C107.548 6.108 107.456 5.892 107.456 5.636C107.456 5.38 107.548 5.168 107.732 5C107.916 4.824 108.144 4.736 108.416 4.736C108.688 4.736 108.916 4.82 109.1 4.988C109.284 5.148 109.376 5.352 109.376 5.6C109.376 5.864 109.284 6.088 109.1 6.272C108.924 6.448 108.696 6.536 108.416 6.536ZM114.765 7.52C115.573 7.52 116.221 7.756 116.709 8.228C117.197 8.7 117.441 9.4 117.441 10.328V14H115.941V10.52C115.941 9.96 115.809 9.54 115.545 9.26C115.281 8.972 114.905 8.828 114.417 8.828C113.865 8.828 113.429 8.996 113.109 9.332C112.789 9.66 112.629 10.136 112.629 10.76V14H111.129V7.592H112.557V8.42C112.805 8.124 113.117 7.9 113.493 7.748C113.869 7.596 114.293 7.52 114.765 7.52ZM119.343 7.592H120.843V14H119.343V7.592ZM120.099 6.536C119.827 6.536 119.599 6.452 119.415 6.284C119.231 6.108 119.139 5.892 119.139 5.636C119.139 5.38 119.231 5.168 119.415 5C119.599 4.824 119.827 4.736 120.099 4.736C120.371 4.736 120.599 4.82 120.783 4.988C120.967 5.148 121.059 5.352 121.059 5.6C121.059 5.864 120.967 6.088 120.783 6.272C120.607 6.448 120.379 6.536 120.099 6.536ZM127.816 12.8V14H122.284V13.052L125.8 8.792H122.356V7.592H127.72V8.54L124.192 12.8H127.816ZM135.129 10.832C135.129 10.936 135.121 11.084 135.105 11.276H130.077C130.165 11.748 130.393 12.124 130.761 12.404C131.137 12.676 131.601 12.812 132.153 12.812C132.857 12.812 133.437 12.58 133.893 12.116L134.697 13.04C134.409 13.384 134.045 13.644 133.605 13.82C133.165 13.996 132.669 14.084 132.117 14.084C131.413 14.084 130.793 13.944 130.257 13.664C129.721 13.384 129.305 12.996 129.009 12.5C128.721 11.996 128.577 11.428 128.577 10.796C128.577 10.172 128.717 9.612 128.997 9.116C129.285 8.612 129.681 8.22 130.185 7.94C130.689 7.66 131.257 7.52 131.889 7.52C132.513 7.52 133.069 7.66 133.557 7.94C134.053 8.212 134.437 8.6 134.709 9.104C134.989 9.6 135.129 10.176 135.129 10.832ZM131.889 8.72C131.409 8.72 131.001 8.864 130.665 9.152C130.337 9.432 130.137 9.808 130.065 10.28H133.701C133.637 9.816 133.441 9.44 133.113 9.152C132.785 8.864 132.377 8.72 131.889 8.72Z" fill="#8E8E94"/>
</svg>
